<svg xmlns="http://www.w3.org/2000/svg" xmlns:xlink="http://www.w3.org/1999/xlink" version="1.1" viewBox="9.38 483.51 1060.61 290.31">
  <defs>
    <style>
      .cls-1 {
        fill: none;
      }

      .cls-2 {
        clip-path: url(#clippath-1);
      }

      .cls-3 {
        clip-path: url(#clippath-3);
      }

      .cls-4 {
        clip-path: url(#clippath-4);
      }

      .cls-5 {
        clip-path: url(#clippath-2);
      }

      .cls-6 {
        fill: #fff;
      }

      .cls-7 {
        clip-path: url(#clippath);
      }
    </style>
    <clipPath id="clippath">
      <rect class="cls-1" x="9.38" y="483.51" width="1060.63" height="290.3"/>
    </clipPath>
    <clipPath id="clippath-1">
      <rect class="cls-1" x="9.38" y="483.51" width="1060.63" height="290.3"/>
    </clipPath>
    <clipPath id="clippath-2">
      <rect class="cls-1" x="9.38" y="483.51" width="1060.63" height="290.3"/>
    </clipPath>
    <clipPath id="clippath-3">
      <rect class="cls-1" x="9.38" y="483.51" width="1060.63" height="290.3"/>
    </clipPath>
    <clipPath id="clippath-4">
      <rect class="cls-1" x="9.38" y="483.51" width="1060.63" height="290.3"/>
    </clipPath>
  </defs>
  <!-- Generator: Adobe Illustrator 28.6.0, SVG Export Plug-In . SVG Version: 1.2.0 Build 709)  -->
  <g>
    <g id="Layer_1">
      <g class="cls-7">
        <path class="cls-6" d="M419.75,573.49h-.39c-8.38-22.99-24.36-39.36-45.21-39.36-29.22,0-45.79,27.49-45.79,63.53,0,38.18,22.21,60.4,48.52,60.4,20.47,0,35.85-7.79,45.41-29.81l.98.4c-5.26,25.33-25.13,41.31-54.17,41.31-37.99,0-66.84-27.87-66.84-69.56s31.77-70.73,70.73-70.73c16.38,0,26.51,6.62,32.55,6.62s9.74-3.51,12.86-6.62l1.36,43.84Z"/>
        <path class="cls-6" d="M500.42,620.46c0-27.09-8.57-45.99-24.75-45.99s-24.75,18.9-24.75,45.99,8.57,45.79,24.75,45.79,24.75-18.9,24.75-45.79M426.18,620.46c0-29.03,21.24-49.69,49.49-49.69s49.49,20.66,49.49,49.69-21.04,49.49-49.49,49.49-49.49-20.47-49.49-49.49"/>
        <path class="cls-6" d="M655.14,570.77c18.91,0,28.84,12.66,28.84,33.9v42.09c0,12.87,1.36,16.57,10.53,20.85v.39h-43.65v-.39c9.15-4.28,10.52-7.98,10.52-20.85v-41.31c0-12.28-2.92-22.79-16.56-22.79s-22.02,12.66-22.02,33.52v30.58c0,12.87,1.36,16.57,10.53,20.85v.39h-43.66v-.39c9.17-4.28,10.53-7.98,10.53-20.85v-41.31c0-12.28-2.93-22.79-16.57-22.79s-22.01,12.66-22.01,33.52v30.58c0,12.87,1.36,16.57,10.52,20.85v.39h-43.65v-.39c9.15-4.28,10.52-7.98,10.52-20.85v-52.61c0-11.7-2.13-16.76-11.49-21.04v-.39h34.11v26.5c4.28-17.92,15.77-28.45,32.35-28.45s27.07,10.53,28.64,28.45c4.28-17.92,15.98-28.45,32.54-28.45"/>
        <path class="cls-6" d="M728.8,612.27v16.57c0,20.07,13.45,32.35,26.3,32.35,16.57,0,26.5-15.79,26.5-41.7,0-24.17-10.13-38.58-26.69-38.58-12.86,0-26.11,11.89-26.11,31.37M728.8,690.21c0,12.86,1.36,16.56,10.52,20.85v.39h-43.65v-.39c9.17-4.29,10.53-8,10.53-20.85v-96.06c0-11.7-2.34-16.76-11.51-21.04v-.4h34.11v25.72c3.9-15,16.37-27.67,34.49-27.67,23.58,0,42.67,18.31,42.67,48.71s-19.49,50.47-43.45,50.47c-17.73,0-29.81-11.89-33.71-26.32v46.58Z"/>
        <path class="cls-6" d="M858.58,618.11c-17.34,3.51-25.34,10.53-25.34,24.17,0,11.88,6.24,16.94,14.81,16.94,11.3,0,21.43-9.73,21.62-25.92l.4-17.34-11.49,2.15ZM910.02,661.18c-3.9,4.87-11.11,8.38-19.49,8.38-12.07,0-18.71-6.83-19.86-17.15,0-.78-.4-6.24-.4-8-2.34,13.45-15.79,24.95-32.15,24.95-15.39,0-28.06-7.8-28.06-24.17,0-21.24,21.83-25.92,45.21-30.2l14.81-2.74v-13.63c0-12.87-5.85-24.17-20.26-24.17-12.87,0-17.93,7.02-17.93,15.59,0,6.62,3.32,10.9,8.96,10.9.98,0,1.95-.19,2.93-.58-1.76,6.24-7.21,9.55-14.04,9.55-8.77,0-15.58-5.66-15.58-15.02,0-13.24,14.62-24.16,36.05-24.16,27.28,0,42.86,9.74,42.86,33.32,0,15.59-.39,28.26-.39,40.73,0,11.3,3.32,17.34,11.89,17.34,1.94,0,3.9-.59,5.45-1.36v.39Z"/>
        <path class="cls-6" d="M923.85,589.86c0,9.35,4.28,13.45,23.58,18.32,25.72,6.62,35.28,15.39,35.28,31.95,0,19.49-16.96,29.81-36.64,29.81-13.45,0-22.02-4.86-28.26-4.86-4.09,0-6.43,2.34-8.96,4.86l-2.15-36.43h.4c9.35,20.27,21.24,32.74,38.97,32.74,11.11,0,19.88-6.44,19.88-17.93s-10.13-14.62-26.3-18.51c-22.81-6.04-31.56-15.58-31.56-31.37,0-17.54,15.2-27.68,32.92-27.68,12.08,0,18.51,5.08,25.34,5.08,3.9,0,6.81-2.15,10.12-5.08v31.96h-.39c-7.4-15.98-20.07-28.24-35.07-28.24-11.11,0-17.15,7.01-17.15,15.39"/>
        <path class="cls-6" d="M1006.28,589.86c0,9.35,4.28,13.45,23.58,18.32,25.72,6.62,35.28,15.39,35.28,31.95,0,19.49-16.96,29.81-36.64,29.81-13.45,0-22.02-4.86-28.26-4.86-4.09,0-6.43,2.34-8.96,4.86l-2.15-36.43h.4c9.35,20.27,21.24,32.74,38.97,32.74,11.11,0,19.88-6.44,19.88-17.93s-10.13-14.62-26.3-18.51c-22.81-6.04-31.56-15.58-31.56-31.37,0-17.54,15.2-27.68,32.92-27.68,12.08,0,18.51,5.08,25.34,5.08,3.9,0,6.81-2.15,10.12-5.08v31.96h-.39c-7.4-15.98-20.07-28.24-35.07-28.24-11.11,0-17.15,7.01-17.15,15.39"/>
      </g>
      <polygon class="cls-6" points="521.99 734.3 521.99 750.51 501.56 750.51 501.56 734.3 494.72 734.3 494.72 773.07 501.56 773.07 501.56 756.45 521.99 756.45 521.99 773.07 528.84 773.07 528.84 734.3 521.99 734.3"/>
      <polygon class="cls-6" points="542.53 734.3 542.53 773.07 570.06 773.07 570.06 767.21 549.39 767.21 549.39 755.7 569.02 755.7 569.02 750.14 549.39 750.14 549.39 740.24 570.37 740.24 570.37 734.3 542.53 734.3"/>
      <path class="cls-6" d="M598.2,739.44l6.18,17.06h-12.37l6.18-17.06ZM592.99,734.3l-14,38.77h7.1l3.84-10.63h16.46l3.86,10.63h7.22l-14.08-38.77h-10.4Z"/>
      <polygon class="cls-6" points="627.25 734.3 627.25 773.07 654.47 773.07 654.47 767.21 634.1 767.21 634.1 734.3 627.25 734.3"/>
      <polygon class="cls-6" points="656.55 734.3 656.55 740.24 669.52 740.24 669.52 773.07 676.42 773.07 676.42 740.24 689.45 740.24 689.45 734.3 656.55 734.3"/>
      <polygon class="cls-6" points="727.25 734.3 727.25 750.51 706.82 750.51 706.82 734.3 699.97 734.3 699.97 773.07 706.82 773.07 706.82 756.45 727.25 756.45 727.25 773.07 734.1 773.07 734.1 734.3 727.25 734.3"/>
      <g class="cls-2">
        <path class="cls-6" d="M787.25,743.41c-.49-.85-1.14-1.56-1.95-2.11s-1.72-.95-2.73-1.22c-.99-.27-2.07-.4-3.21-.4-.89,0-1.8.05-2.71.15-.93.1-1.76.32-2.51.67-.76.35-1.36.81-1.81,1.38-.45.58-.67,1.32-.67,2.26,0,1.03.24,1.86.73,2.55.49.67,1.14,1.23,1.95,1.67.82.45,1.72.82,2.7,1.11.98.28,1.94.53,2.87.73,1.63.37,3.36.8,5.14,1.29,1.8.49,3.46,1.18,4.99,2.08,1.53.9,2.79,2.07,3.79,3.51.99,1.45,1.49,3.29,1.49,5.54,0,2.08-.44,3.82-1.31,5.23-.87,1.4-2.06,2.55-3.55,3.42-1.49.87-3.18,1.52-5.05,1.93-1.86.41-3.81.62-5.81.62s-3.87-.24-5.75-.71c-1.88-.48-3.56-1.21-5.07-2.2-1.52-1-2.75-2.25-3.7-3.74-.96-1.48-1.53-3.27-1.68-5.35l6.85-.85c.15,1.09.5,2.07,1.04,2.93.53.86,1.22,1.58,2.1,2.17.89.59,1.85,1.04,2.91,1.38,1.07.32,2.21.49,3.43.49,1.02,0,2.04-.08,3.06-.22,1.02-.14,1.93-.39,2.75-.73.81-.35,1.47-.81,1.95-1.4.49-.59.73-1.36.73-2.3,0-1.26-.41-2.3-1.25-3.11-.84-.82-1.86-1.48-3.06-1.99-1.21-.51-2.48-.91-3.82-1.22-1.35-.31-2.53-.58-3.55-.82-1.43-.3-2.87-.69-4.32-1.23-1.45-.53-2.74-1.22-3.88-2.11-1.14-.87-2.07-1.95-2.78-3.24-.72-1.29-1.07-2.85-1.07-4.73,0-2.08.45-3.83,1.38-5.23.91-1.41,2.1-2.55,3.54-3.39,1.45-.86,3.06-1.48,4.81-1.84,1.75-.37,3.46-.55,5.13-.55,2.01,0,3.92.23,5.75.71,1.84.46,3.47,1.2,4.9,2.17s2.57,2.22,3.43,3.73c.86,1.5,1.29,3.33,1.29,5.44l-6.74.62c0-1.18-.24-2.2-.73-3.06"/>
      </g>
      <polygon class="cls-6" points="806.15 734.3 806.15 773.07 833.67 773.07 833.67 767.21 813 767.21 813 755.7 832.63 755.7 832.63 750.14 813 750.14 813 740.24 833.98 740.24 833.98 734.3 806.15 734.3"/>
      <g class="cls-5">
        <path class="cls-6" d="M861,753.32c1.35,0,2.61-.06,3.79-.21,1.18-.14,2.21-.46,3.1-.95.87-.49,1.57-1.18,2.11-2.08.53-.89.8-2.13.8-3.73,0-1.3-.21-2.35-.62-3.15-.41-.8-.99-1.41-1.74-1.86-.77-.45-1.7-.76-2.79-.91-1.11-.17-2.35-.26-3.73-.26h-8.63v13.15h7.7ZM846.39,773.07v-38.77h16.21c2.03,0,3.96.18,5.77.54,1.83.37,3.42,1,4.81,1.9s2.48,2.11,3.28,3.64c.8,1.53,1.18,3.46,1.18,5.79,0,1.5-.17,2.92-.49,4.24s-.84,2.51-1.56,3.55-1.65,1.94-2.79,2.7c-1.13.75-2.52,1.31-4.15,1.68l10.76,14.73h-8.5l-9.85-13.88h-7.83v13.88h-6.85Z"/>
      </g>
      <polygon class="cls-6" points="916.3 734.3 904.74 769.88 893.11 734.3 886.07 734.3 898.2 773.07 911.22 773.07 923.4 734.3 916.3 734.3"/>
      <rect class="cls-6" x="932.14" y="734.29" width="6.85" height="38.77"/>
      <g class="cls-3">
        <path class="cls-6" d="M958.38,759.1c.66,1.74,1.56,3.23,2.73,4.46,1.16,1.25,2.55,2.22,4.15,2.94,1.62.71,3.38,1.07,5.3,1.07,2.97,0,5.52-.62,7.65-1.86,2.11-1.25,3.63-3.15,4.51-5.72l6.36.91c-.36,2.04-1.08,3.87-2.13,5.48-1.07,1.62-2.39,2.96-3.99,4.04-1.58,1.08-3.39,1.9-5.44,2.46-2.04.54-4.26.82-6.66.82-3.15,0-5.98-.49-8.47-1.47-2.51-.99-4.65-2.37-6.43-4.17-1.77-1.79-3.11-3.92-4.04-6.39-.91-2.47-1.38-5.17-1.38-8.1.04-2.74.53-5.31,1.47-7.71.94-2.4,2.28-4.5,4.01-6.3,1.74-1.79,3.86-3.21,6.36-4.28,2.49-1.05,5.35-1.59,8.52-1.59,2.4,0,4.63.3,6.67.86,2.03.57,3.84,1.4,5.44,2.48,1.59,1.08,2.91,2.42,3.95,4.04,1.04,1.61,1.75,3.43,2.11,5.46l-6.36.86c-.4-1.22-.99-2.3-1.74-3.24-.76-.94-1.65-1.74-2.7-2.39-1.03-.64-2.21-1.13-3.51-1.47-1.31-.32-2.74-.49-4.28-.49-1.88,0-3.61.35-5.23,1.04-1.61.69-3,1.65-4.15,2.88-1.17,1.22-2.07,2.66-2.73,4.33-.66,1.67-.98,3.51-.98,5.52s.32,3.79.98,5.53"/>
      </g>
      <polygon class="cls-6" points="1000.65 734.3 1000.65 773.07 1028.17 773.07 1028.17 767.21 1007.5 767.21 1007.5 755.7 1027.13 755.7 1027.13 750.14 1007.5 750.14 1007.5 740.24 1028.47 740.24 1028.47 734.3 1000.65 734.3"/>
      <g class="cls-4">
        <path class="cls-6" d="M1061.93,743.41c-.49-.85-1.14-1.56-1.95-2.11-.81-.55-1.72-.95-2.73-1.22-.99-.27-2.07-.4-3.2-.4-.9,0-1.81.05-2.73.15-.93.1-1.76.32-2.51.67-.76.35-1.36.81-1.81,1.38-.45.58-.67,1.32-.67,2.26,0,1.03.24,1.86.73,2.55.49.67,1.14,1.23,1.95,1.67.82.45,1.72.82,2.7,1.11.98.28,1.94.53,2.87.73,1.63.37,3.36.8,5.14,1.29,1.8.49,3.46,1.18,4.99,2.08,1.53.9,2.79,2.07,3.79,3.51,1,1.45,1.49,3.29,1.49,5.54,0,2.08-.44,3.82-1.31,5.23-.87,1.4-2.06,2.55-3.55,3.42-1.49.87-3.18,1.52-5.05,1.93-1.86.41-3.81.62-5.81.62s-3.87-.24-5.75-.71c-1.88-.48-3.56-1.21-5.07-2.2-1.52-1-2.75-2.25-3.7-3.74-.96-1.48-1.53-3.27-1.68-5.35l6.85-.85c.15,1.09.5,2.07,1.04,2.93.53.86,1.22,1.58,2.1,2.17.89.59,1.85,1.04,2.92,1.38,1.05.32,2.2.49,3.42.49,1.02,0,2.04-.08,3.06-.22,1.02-.14,1.94-.39,2.75-.73.81-.35,1.47-.81,1.95-1.4.49-.59.73-1.36.73-2.3,0-1.26-.41-2.3-1.25-3.11-.84-.82-1.86-1.48-3.06-1.99-1.21-.51-2.48-.91-3.82-1.22-1.35-.31-2.53-.58-3.55-.82-1.43-.3-2.87-.69-4.32-1.23-1.44-.53-2.74-1.22-3.88-2.11-1.14-.87-2.07-1.95-2.78-3.24-.72-1.29-1.07-2.85-1.07-4.73,0-2.08.45-3.83,1.38-5.23.91-1.41,2.1-2.55,3.54-3.39,1.45-.86,3.06-1.48,4.81-1.84,1.75-.37,3.46-.55,5.14-.55,1.99,0,3.91.23,5.73.71,1.85.46,3.47,1.2,4.91,2.17,1.41.98,2.56,2.22,3.42,3.73.86,1.5,1.29,3.33,1.29,5.44l-6.74.62c0-1.18-.24-2.2-.73-3.06"/>
        <path class="cls-6" d="M152.77,526.86l-11.07-19.9-13.04-23.45-13.04,23.45-11.06,19.9c-2.01,3.06-3.68,8.66-3.68,12.35,0,7.79,6.33,14.12,14.12,14.12,6.54,0,12.06-4.45,13.65-10.5,1.59,6.06,7.11,10.5,13.65,10.5,7.79,0,14.12-6.33,14.12-14.12,0-3.69-1.66-9.29-3.66-12.35M204.61,626.9l19.91-11.07,23.44-13.04-23.44-13.02-19.91-11.07c-3.05-2.01-8.65-3.66-12.34-3.66-7.8,0-14.13,6.31-14.13,14.12,0,6.54,4.46,12.05,10.5,13.64-6.04,1.61-10.5,7.11-10.5,13.65,0,7.8,6.33,14.12,14.13,14.12,3.69,0,9.29-1.66,12.34-3.66M152.77,678.75l-11.07,19.9-13.04,23.44-13.04-23.44-11.06-19.9c-2.01-3.06-3.68-8.66-3.68-12.35,0-7.79,6.33-14.12,14.12-14.12,6.54,0,12.06,4.45,13.65,10.49,1.59-6.04,7.11-10.49,13.65-10.49,7.79,0,14.12,6.33,14.12,14.12,0,3.69-1.66,9.29-3.66,12.35M52.73,626.9l-19.91-11.07-23.44-13.04,23.44-13.02,19.91-11.07c3.05-2.01,8.65-3.66,12.35-3.66,7.79,0,14.12,6.31,14.12,14.12,0,6.54-4.46,12.05-10.5,13.64,6.04,1.61,10.5,7.11,10.5,13.65,0,7.8-6.33,14.12-14.12,14.12-3.7,0-9.31-1.66-12.35-3.66"/>
      </g>
      <path class="cls-6" d="M56.2,530.92l8.19,21.02,8.09,20.76-.09.09.14.05.05.13.08-.08,20.76,8.07,21.03,8.19-8.19-21.02-8.09-20.76.09-.09-.14-.05-.05-.13-.08.08-20.76-8.09-21.03-8.18ZM201.13,674.69l-8.19-21.03-8.07-20.76.08-.08-.14-.05-.04-.14-.09.09-20.76-8.09-21.02-8.18,8.18,21.02,8.09,20.76-.08.08.13.05.05.14.09-.08,20.75,8.07,21.03,8.19Z"/>
      <path class="cls-6" d="M201.13,530.92l-8.19,21.02-8.09,20.76.09.09-.14.05-.05.13-.08-.08-20.76,8.07-21.03,8.19,8.19-21.02,8.09-20.76-.09-.09.14-.05.05-.13.08.08,20.76-8.09,21.03-8.18ZM56.21,674.69l8.19-21.03,8.07-20.76-.08-.08.14-.05.05-.14.08.09,20.76-8.09,21.02-8.18-8.18,21.02-8.09,20.76.09.08-.14.05-.05.14-.08-.08-20.76,8.07-21.03,8.19Z"/>
    </g>
  </g>
</svg>