<svg xmlns="http://www.w3.org/2000/svg" xmlns:xlink="http://www.w3.org/1999/xlink" version="1.1" viewBox="42.45 404.38 994.49 272.18">
  <defs>
    <style>
      .cls-1 {
        fill: none;
      }

      .cls-2 {
        fill: #8563c2;
      }

      .cls-3 {
        clip-path: url(#clippath-1);
      }

      .cls-4 {
        clip-path: url(#clippath-3);
      }

      .cls-5 {
        clip-path: url(#clippath-4);
      }

      .cls-6 {
        clip-path: url(#clippath-2);
      }

      .cls-7 {
        fill: #d963c2;
      }

      .cls-8 {
        fill: #241f21;
      }

      .cls-9 {
        clip-path: url(#clippath);
      }
    </style>
    <clipPath id="clippath">
      <rect class="cls-1" x="42.45" y="404.38" width="994.49" height="272.19"/>
    </clipPath>
    <clipPath id="clippath-1">
      <rect class="cls-1" x="42.45" y="404.38" width="994.49" height="272.19"/>
    </clipPath>
    <clipPath id="clippath-2">
      <rect class="cls-1" x="42.45" y="404.38" width="994.49" height="272.19"/>
    </clipPath>
    <clipPath id="clippath-3">
      <rect class="cls-1" x="42.45" y="404.38" width="994.49" height="272.19"/>
    </clipPath>
    <clipPath id="clippath-4">
      <rect class="cls-1" x="42.45" y="404.38" width="994.49" height="272.19"/>
    </clipPath>
  </defs>
  <!-- Generator: Adobe Illustrator 28.6.0, SVG Export Plug-In . SVG Version: 1.2.0 Build 709)  -->
  <g>
    <g id="Layer_1">
      <g class="cls-9">
        <path class="cls-2" d="M427.23,488.74h-.37c-7.86-21.55-22.83-36.9-42.38-36.9-27.41,0-42.94,25.76-42.94,59.57,0,35.81,20.83,56.64,45.5,56.64,19.18,0,33.62-7.31,42.58-27.96l.91.37c-4.93,23.75-23.57,38.73-50.79,38.73-35.62,0-62.67-26.13-62.67-65.23s29.79-66.32,66.33-66.32c15.34,0,24.85,6.21,30.51,6.21s9.14-3.29,12.06-6.21l1.28,41.1Z"/>
        <path class="cls-2" d="M502.87,532.78c0-25.4-8.04-43.12-23.2-43.12s-23.21,17.72-23.21,43.12,8.04,42.93,23.21,42.93,23.2-17.72,23.2-42.93M433.26,532.78c0-27.23,19.92-46.59,46.41-46.59s46.4,19.37,46.4,46.59-19.72,46.41-46.4,46.41-46.41-19.18-46.41-46.41"/>
        <path class="cls-2" d="M647.94,486.18c17.73,0,27.04,11.87,27.04,31.79v39.47c0,12.06,1.27,15.53,9.86,19.55v.37h-40.92v-.37c8.59-4.02,9.86-7.49,9.86-19.55v-38.73c0-11.51-2.74-21.38-15.52-21.38s-20.65,11.88-20.65,31.42v28.69c0,12.06,1.28,15.53,9.86,19.55v.37h-40.92v-.37c8.58-4.02,9.86-7.49,9.86-19.55v-38.73c0-11.51-2.74-21.38-15.53-21.38s-20.64,11.88-20.64,31.42v28.69c0,12.06,1.28,15.53,9.86,19.55v.37h-40.92v-.37c8.58-4.02,9.86-7.49,9.86-19.55v-49.33c0-10.97-2.01-15.72-10.78-19.73v-.37h31.97v24.85c4.02-16.81,14.79-26.68,30.33-26.68s25.4,9.87,26.86,26.68c4.02-16.81,14.99-26.68,30.51-26.68"/>
        <path class="cls-2" d="M717.02,525.1v15.53c0,18.82,12.61,30.33,24.66,30.33,15.53,0,24.85-14.79,24.85-39.1,0-22.65-9.5-36.17-25.03-36.17-12.06,0-24.48,11.14-24.48,29.41M717.02,598.18c0,12.06,1.28,15.53,9.86,19.55v.37h-40.93v-.37c8.59-4.02,9.87-7.49,9.87-19.55v-90.08c0-10.96-2.19-15.71-10.78-19.73v-.37h31.97v24.12c3.65-14.06,15.34-25.94,32.34-25.94,22.1,0,40.01,17.18,40.01,45.68s-18.27,47.32-40.74,47.32c-16.63,0-27.96-11.14-31.61-24.66v43.67Z"/>
        <path class="cls-2" d="M838.7,530.58c-16.27,3.29-23.75,9.87-23.75,22.66,0,11.14,5.84,15.89,13.88,15.89,10.6,0,20.1-9.13,20.28-24.3l.37-16.26-10.78,2ZM886.93,570.96c-3.65,4.56-10.41,7.86-18.27,7.86-11.33,0-17.54-6.39-18.64-16.08,0-.73-.37-5.85-.37-7.49-2.19,12.62-14.8,23.39-30.14,23.39-14.44,0-26.31-7.31-26.31-22.66,0-19.91,20.47-24.3,42.38-28.31l13.89-2.56v-12.79c0-12.06-5.48-22.65-19-22.65-12.06,0-16.81,6.58-16.81,14.61,0,6.21,3.1,10.24,8.4,10.24.91,0,1.83-.18,2.74-.55-1.65,5.85-6.76,8.95-13.16,8.95-8.22,0-14.62-5.3-14.62-14.06,0-12.42,13.7-22.66,33.8-22.66,25.58,0,40.19,9.14,40.19,31.24,0,14.62-.36,26.49-.36,38.19,0,10.6,3.1,16.27,11.14,16.27,1.83,0,3.65-.55,5.11-1.28v.37Z"/>
        <path class="cls-2" d="M899.9,504.09c0,8.77,4.02,12.61,22.11,17.17,24.12,6.21,33.07,14.44,33.07,29.97,0,18.27-15.9,27.95-34.35,27.95-12.61,0-20.65-4.56-26.49-4.56-3.83,0-6.03,2.2-8.41,4.56l-2-34.16h.37c8.76,19,19.91,30.69,36.54,30.69,10.41,0,18.64-6.03,18.64-16.82,0-10.23-9.51-13.69-24.66-17.35-21.38-5.66-29.59-14.61-29.59-29.41,0-16.45,14.24-25.94,30.88-25.94,11.33,0,17.35,4.75,23.75,4.75,3.66,0,6.39-2.01,9.5-4.75v29.96h-.36c-6.94-14.99-18.83-26.49-32.89-26.49-10.42,0-16.08,6.58-16.08,14.44"/>
        <path class="cls-2" d="M977.19,504.09c0,8.77,4.02,12.61,22.11,17.17,24.12,6.21,33.07,14.44,33.07,29.97,0,18.27-15.9,27.95-34.35,27.95-12.61,0-20.65-4.56-26.49-4.56-3.83,0-6.03,2.2-8.41,4.56l-2-34.16h.37c8.76,19,19.91,30.69,36.54,30.69,10.41,0,18.64-6.03,18.64-16.82,0-10.23-9.51-13.69-24.66-17.35-21.38-5.66-29.59-14.61-29.59-29.41,0-16.45,14.24-25.94,30.88-25.94,11.33,0,17.35,4.75,23.75,4.75,3.65,0,6.39-2.01,9.5-4.75v29.96h-.36c-6.94-14.99-18.83-26.49-32.89-26.49-10.42,0-16.08,6.58-16.08,14.44"/>
      </g>
      <polygon class="cls-8" points="523.1 639.52 523.1 654.72 503.95 654.72 503.95 639.52 497.52 639.52 497.52 675.88 503.95 675.88 503.95 660.29 523.1 660.29 523.1 675.88 529.52 675.88 529.52 639.52 523.1 639.52"/>
      <polygon class="cls-8" points="542.37 639.52 542.37 675.88 568.17 675.88 568.17 670.37 548.79 670.37 548.79 659.59 567.2 659.59 567.2 654.37 548.79 654.37 548.79 645.08 568.46 645.08 568.46 639.52 542.37 639.52"/>
      <path class="cls-8" d="M594.56,644.34l5.79,16h-11.59l5.8-16ZM589.68,639.52l-13.13,36.36h6.65l3.6-9.98h15.43l3.61,9.98h6.77l-13.19-36.36h-9.75Z"/>
      <polygon class="cls-8" points="621.8 639.52 621.8 675.88 647.32 675.88 647.32 670.37 628.22 670.37 628.22 639.52 621.8 639.52"/>
      <polygon class="cls-8" points="649.27 639.52 649.27 645.08 661.43 645.08 661.43 675.88 667.9 675.88 667.9 645.08 680.11 645.08 680.11 639.52 649.27 639.52"/>
      <polygon class="cls-8" points="715.56 639.52 715.56 654.72 696.4 654.72 696.4 639.52 689.98 639.52 689.98 675.88 696.4 675.88 696.4 660.29 715.56 660.29 715.56 675.88 721.98 675.88 721.98 639.52 715.56 639.52"/>
      <g class="cls-3">
        <path class="cls-8" d="M771.82,648.06c-.45-.8-1.07-1.46-1.84-1.97-.76-.52-1.61-.9-2.55-1.15-.93-.25-1.94-.38-3-.38-.84,0-1.69.05-2.55.14-.86.1-1.65.31-2.35.63-.7.33-1.27.76-1.7,1.29-.42.54-.63,1.24-.63,2.13,0,.95.23,1.74.68,2.38.46.63,1.08,1.16,1.84,1.57.76.42,1.61.77,2.52,1.04.91.26,1.82.49,2.7.68,1.53.35,3.13.74,4.82,1.2,1.69.46,3.24,1.11,4.67,1.96,1.43.84,2.62,1.94,3.55,3.29.94,1.36,1.41,3.09,1.41,5.19,0,1.95-.4,3.58-1.23,4.9-.82,1.32-1.93,2.39-3.32,3.21-1.4.83-2.98,1.43-4.73,1.81-1.76.39-3.58.58-5.45.58s-3.63-.22-5.39-.66-3.34-1.13-4.76-2.06c-1.42-.93-2.57-2.1-3.47-3.51-.91-1.39-1.43-3.06-1.58-5.02l6.42-.8c.15,1.03.47,1.96.97,2.75s1.16,1.48,1.97,2.03c.83.56,1.73.99,2.73,1.29.99.31,2.07.46,3.22.46.95,0,1.91-.07,2.87-.2.95-.13,1.81-.36,2.58-.68.76-.33,1.37-.77,1.83-1.32.46-.56.68-1.27.68-2.15,0-1.19-.39-2.17-1.17-2.93-.78-.76-1.73-1.39-2.87-1.87-1.13-.47-2.31-.86-3.57-1.15-1.26-.29-2.38-.54-3.33-.77-1.34-.27-2.69-.65-4.04-1.15-1.36-.5-2.57-1.16-3.64-1.98-1.07-.82-1.95-1.83-2.61-3.03-.66-1.21-1-2.69-1-4.45,0-1.96.43-3.58,1.29-4.9.86-1.32,1.97-2.38,3.32-3.19,1.36-.8,2.86-1.38,4.51-1.71,1.64-.35,3.25-.52,4.82-.52,1.88,0,3.67.22,5.39.66,1.72.43,3.25,1.12,4.58,2.03s2.41,2.09,3.22,3.5c.8,1.42,1.2,3.12,1.2,5.1l-6.31.58c0-1.11-.23-2.07-.69-2.87"/>
      </g>
      <polygon class="cls-8" points="789.54 639.52 789.54 675.88 815.34 675.88 815.34 670.37 795.97 670.37 795.97 659.59 814.38 659.59 814.38 654.37 795.97 654.37 795.97 645.08 815.64 645.08 815.64 639.52 789.54 639.52"/>
      <g class="cls-6">
        <path class="cls-8" d="M840.97,657.36c1.26,0,2.45-.07,3.56-.2,1.11-.13,2.07-.43,2.89-.9.83-.45,1.48-1.1,1.98-1.95.49-.84.74-2,.74-3.5,0-1.22-.19-2.22-.57-2.96-.39-.74-.92-1.33-1.64-1.75-.71-.41-1.58-.7-2.61-.86s-2.2-.23-3.5-.23h-8.09v12.34h7.22ZM827.27,675.88v-36.36h15.21c1.91,0,3.71.17,5.41.51,1.7.35,3.2.94,4.5,1.78,1.31.84,2.33,1.97,3.07,3.41.75,1.43,1.12,3.25,1.12,5.42,0,1.42-.15,2.74-.46,3.99-.3,1.24-.79,2.35-1.45,3.32-.67.97-1.54,1.82-2.61,2.52-1.07.71-2.37,1.23-3.9,1.58l10.09,13.82h-7.97l-9.23-13.02h-7.35v13.02h-6.42Z"/>
      </g>
      <polygon class="cls-8" points="892.82 639.52 881.98 672.89 871.09 639.52 864.49 639.52 875.86 675.88 888.06 675.88 899.47 639.52 892.82 639.52"/>
      <rect class="cls-8" x="907.67" y="639.52" width="6.42" height="36.36"/>
      <g class="cls-4">
        <path class="cls-8" d="M932.28,662.77c.62,1.63,1.46,3.02,2.55,4.19s2.39,2.08,3.9,2.75c1.51.66,3.16,1,4.96,1,2.79,0,5.18-.59,7.17-1.75,1.98-1.17,3.4-2.95,4.24-5.35l5.97.86c-.35,1.91-1.02,3.62-2.01,5.13-.99,1.51-2.24,2.76-3.73,3.78-1.49,1.01-3.2,1.77-5.1,2.29-1.92.51-4,.77-6.25.77-2.95,0-5.6-.45-7.95-1.38-2.35-.91-4.35-2.22-6.02-3.9-1.67-1.68-2.93-3.68-3.78-5.99-.87-2.31-1.29-4.84-1.29-7.6.04-2.56.49-4.97,1.37-7.22.89-2.25,2.14-4.23,3.77-5.9,1.62-1.69,3.61-3.02,5.96-4.02,2.35-1,5.02-1.49,8-1.49,2.25,0,4.33.27,6.25.8,1.91.54,3.61,1.31,5.1,2.32,1.49,1.02,2.72,2.28,3.7,3.78.97,1.51,1.64,3.23,1.98,5.13l-5.97.81c-.39-1.15-.92-2.17-1.64-3.04-.7-.88-1.54-1.62-2.52-2.23-.97-.61-2.07-1.07-3.29-1.38s-2.56-.46-4.02-.46c-1.75,0-3.39.33-4.9.98-1.51.65-2.81,1.54-3.9,2.7-1.09,1.15-1.94,2.49-2.55,4.06-.61,1.57-.91,3.29-.91,5.16s.31,3.56.91,5.19"/>
      </g>
      <polygon class="cls-8" points="971.91 639.52 971.91 675.88 997.71 675.88 997.71 670.37 978.33 670.37 978.33 659.59 996.74 659.59 996.74 654.37 978.33 654.37 978.33 645.08 998.01 645.08 998.01 639.52 971.91 639.52"/>
      <g class="cls-5">
        <path class="cls-8" d="M1029.37,648.06c-.45-.8-1.07-1.46-1.83-1.97-.77-.52-1.62-.9-2.56-1.15-.92-.25-1.94-.38-3-.38-.84,0-1.69.05-2.55.14-.86.1-1.65.31-2.35.63-.7.33-1.27.76-1.7,1.29-.41.54-.63,1.24-.63,2.13,0,.95.23,1.74.68,2.38.46.63,1.08,1.16,1.84,1.57.76.42,1.61.77,2.52,1.04.91.26,1.82.49,2.7.68,1.53.35,3.13.74,4.82,1.2,1.69.46,3.24,1.11,4.67,1.96,1.43.84,2.62,1.94,3.55,3.29.94,1.36,1.41,3.09,1.41,5.19,0,1.95-.4,3.58-1.23,4.9-.82,1.32-1.93,2.39-3.32,3.21-1.4.83-2.98,1.43-4.73,1.81-1.76.39-3.58.58-5.45.58s-3.63-.22-5.39-.66-3.34-1.13-4.76-2.06c-1.42-.93-2.57-2.1-3.47-3.51-.91-1.39-1.43-3.06-1.58-5.02l6.42-.8c.15,1.03.47,1.96.97,2.75s1.16,1.48,1.97,2.03c.83.56,1.73.99,2.73,1.29,1,.31,2.07.46,3.22.46.95,0,1.92-.07,2.87-.2.95-.13,1.81-.36,2.58-.68.76-.33,1.37-.77,1.83-1.32.46-.56.68-1.27.68-2.15,0-1.19-.39-2.17-1.17-2.93-.79-.76-1.74-1.39-2.87-1.87-1.14-.47-2.32-.86-3.58-1.15-1.26-.29-2.38-.54-3.33-.77-1.34-.27-2.69-.65-4.04-1.15-1.36-.5-2.57-1.16-3.64-1.98-1.07-.82-1.95-1.83-2.61-3.03-.66-1.21-1-2.69-1-4.45,0-1.96.43-3.58,1.29-4.9.86-1.32,1.97-2.38,3.33-3.19,1.35-.8,2.85-1.38,4.5-1.71,1.65-.35,3.25-.52,4.82-.52,1.88,0,3.67.22,5.39.66,1.72.43,3.25,1.12,4.59,2.03,1.33.91,2.4,2.09,3.21,3.5.8,1.42,1.2,3.12,1.2,5.1l-6.31.58c0-1.11-.23-2.07-.69-2.87"/>
        <path class="cls-2" d="M176.9,445.02l-10.38-18.66-12.21-21.98-12.22,21.98-10.38,18.66c-1.88,2.86-3.44,8.12-3.44,11.58,0,7.31,5.93,13.24,13.24,13.24,6.13,0,11.3-4.18,12.8-9.84,1.49,5.66,6.65,9.84,12.79,9.84,7.32,0,13.24-5.93,13.24-13.24,0-3.46-1.56-8.72-3.44-11.58M225.5,538.82l18.66-10.38,21.99-12.21-21.99-12.22-18.66-10.38c-2.86-1.88-8.12-3.44-11.58-3.44-7.31,0-13.24,5.93-13.24,13.24,0,6.13,4.18,11.3,9.84,12.8-5.66,1.49-9.84,6.65-9.84,12.8,0,7.31,5.93,13.23,13.24,13.23,3.46,0,8.72-1.56,11.58-3.44M176.9,587.43l-10.38,18.67-12.21,21.98-12.22-21.98-10.38-18.67c-1.88-2.86-3.44-8.12-3.44-11.58,0-7.31,5.93-13.23,13.24-13.23,6.13,0,11.3,4.17,12.8,9.84,1.49-5.67,6.65-9.84,12.79-9.84,7.32,0,13.24,5.92,13.24,13.23,0,3.46-1.56,8.72-3.44,11.58M83.1,538.82l-18.66-10.38-21.99-12.21,21.99-12.22,18.66-10.38c2.86-1.88,8.12-3.44,11.58-3.44,7.31,0,13.24,5.93,13.24,13.24,0,6.13-4.18,11.3-9.84,12.8,5.66,1.49,9.84,6.65,9.84,12.8,0,7.31-5.93,13.23-13.24,13.23-3.46,0-8.72-1.56-11.58-3.44"/>
      </g>
      <path class="cls-7" d="M86.36,448.82l7.68,19.72,7.57,19.46-.08.08.13.05.05.13.08-.08,19.46,7.58,19.71,7.68-7.68-19.71-7.58-19.47.08-.08-.13-.05-.05-.13-.08.08-19.46-7.58-19.71-7.68ZM222.24,583.63l-7.68-19.71-7.58-19.47.08-.08-.13-.05-.05-.13-.08.08-19.46-7.58-19.72-7.68,7.68,19.72,7.58,19.46-.08.08.13.05.05.13.09-.08,19.46,7.58,19.71,7.68Z"/>
      <path class="cls-7" d="M222.24,448.82l-7.67,19.72-7.58,19.46.08.08-.13.05-.06.13-.08-.08-19.46,7.58-19.71,7.68,7.68-19.71,7.58-19.47-.08-.08.13-.05.05-.13.08.08,19.46-7.58,19.71-7.68ZM86.36,583.63l7.68-19.71,7.58-19.47-.08-.08.13-.05.05-.13.08.08,19.46-7.58,19.72-7.68-7.68,19.72-7.58,19.46.08.08-.13.05-.05.13-.08-.08-19.47,7.58-19.71,7.68Z"/>
    </g>
  </g>
</svg>