<svg viewBox="163.269 252.288 756 756" version="1.1" xmlns:xlink="http://www.w3.org/1999/xlink" xmlns="http://www.w3.org/2000/svg" style="max-height: 500px" width="756" height="756">
  <defs>
    <style>
      .cls-1 {
        fill: none;
      }

      .cls-2 {
        fill: url(#linear-gradient-3);
      }

      .cls-3 {
        fill: url(#linear-gradient-2);
      }

      .cls-4 {
        fill: url(#linear-gradient);
      }

      .cls-5 {
        clip-path: url(#clippath-1);
      }

      .cls-6 {
        clip-path: url(#clippath-2);
      }

      .cls-7 {
        fill: #fff;
      }

      .cls-8 {
        clip-path: url(#clippath);
      }
    </style>
    <clipPath id="clippath">
      <path d="M539.7,814.52c-4.96-18.73-22.01-32.53-42.3-32.53-24.16,0-43.75,19.59-43.75,43.76,0,11.44,5.15,28.81,11.36,38.26l34.3,61.7,40.39,72.64,40.38-72.64,34.3-61.7c6.21-9.46,11.36-26.83,11.36-38.26,0-24.17-19.59-43.76-43.75-43.76-20.28,0-37.34,13.8-42.3,32.53M304.35,553.98l-61.69,34.3-72.65,40.39,72.65,40.38,61.7,34.3c9.46,6.21,26.83,11.37,38.27,11.37,24.16,0,43.75-19.59,43.75-43.75,0-20.28-13.81-37.34-32.53-42.3,18.73-4.95,32.53-22.02,32.53-42.3,0-24.16-19.59-43.75-43.75-43.75-11.44,0-28.82,5.16-38.28,11.37M693.02,586.36c0,20.28,13.8,37.34,32.53,42.3-18.73,4.96-32.53,22.01-32.53,42.3,0,24.16,19.59,43.75,43.75,43.75,11.44,0,28.81-5.16,38.27-11.37l61.7-34.3,72.64-40.38-72.64-40.39-61.7-34.3c-9.45-6.21-26.83-11.37-38.27-11.37-24.17,0-43.75,19.6-43.75,43.75M539.7,258.98l-40.39,72.64-34.3,61.69c-6.21,9.46-11.36,26.83-11.36,38.28,0,24.16,19.58,43.75,43.75,43.75,20.28,0,37.34-13.81,42.3-32.54,4.95,18.73,22.01,32.54,42.3,32.54,24.16,0,43.75-19.59,43.75-43.75,0-11.45-5.15-28.81-11.36-38.27l-34.3-61.7-40.38-72.64Z" class="cls-1"/>
    </clipPath>
    <linearGradient gradientUnits="userSpaceOnUse" gradientTransform="translate(-321.68 349902.89) scale(322.68 -322.68)" y2="1082.4" x2="3.82" y1="1082.4" x1="1.52" id="linear-gradient">
      <stop stop-color="#ebe0c9" offset="0"/>
      <stop stop-color="#d0b171" offset="1"/>
    </linearGradient>
    <clipPath id="clippath-1">
      <path d="M315.14,405.88l25.37,65.17,25.05,64.34-.25.25.41.16.16.41.26-.25,64.34,25.04,65.16,25.37-25.37-65.16-25.04-64.34.25-.25-.42-.16-.16-.42-.25.25-64.34-25.04-65.17-25.37ZM764.25,851.44l-25.37-65.17-25.05-64.34.26-.25-.42-.16-.16-.41-.25.25-64.34-25.04-65.17-25.37,25.37,65.16,25.05,64.34-.25.26.42.16.16.41.26-.25,64.33,25.04,65.17,25.37Z" class="cls-1"/>
    </clipPath>
    <linearGradient xlink:href="#linear-gradient" gradientTransform="translate(-131.67 212901.91) scale(196.01 -196.01)" y2="1082.98" x2="4.57" y1="1082.98" x1="2.28" id="linear-gradient-2"/>
    <clipPath id="clippath-2">
      <path d="M764.25,405.88l-25.37,65.17-25.05,64.34.26.25-.42.16-.16.41-.26-.25-64.33,25.04-65.17,25.37,25.37-65.16,25.05-64.34-.25-.25.42-.16.16-.42.26.25,64.34-25.04,65.16-25.37ZM315.14,851.44l25.37-65.17,25.05-64.34-.25-.25.41-.16.16-.41.25.25,64.34-25.04,65.16-25.37-25.37,65.16-25.04,64.34.25.26-.41.16-.17.41-.25-.25-64.34,25.04-65.17,25.37Z" class="cls-1"/>
    </clipPath>
    <linearGradient xlink:href="#linear-gradient" gradientTransform="translate(-131.67 212901.91) scale(196.01 -196.01)" y2="1082.98" x2="4.57" y1="1082.98" x1="2.28" id="linear-gradient-3"/>
  </defs>
  
  <g>
    <g id="Layer_1">
      <polygon points="806.15 734.3 806.15 773.07 833.67 773.07 833.67 767.21 813 767.21 813 755.7 832.63 755.7 832.63 750.14 813 750.14 813 740.24 833.98 740.24 833.98 734.3 806.15 734.3" class="cls-7"/>
      <polygon points="916.3 734.3 904.74 769.88 893.11 734.3 886.07 734.3 898.2 773.07 911.22 773.07 923.4 734.3 916.3 734.3" class="cls-7"/>
      <rect height="38.77" width="6.85" y="734.29" x="932.14" class="cls-7"/>
      <polygon points="1000.65 734.3 1000.65 773.07 1028.17 773.07 1028.17 767.21 1007.5 767.21 1007.5 755.7 1027.13 755.7 1027.13 750.14 1007.5 750.14 1007.5 740.24 1028.47 740.24 1028.47 734.3 1000.65 734.3" class="cls-7"/>
      <g class="cls-8">
        <rect height="739.37" width="739.37" y="258.98" x="170.01" class="cls-4"/>
      </g>
      <g class="cls-5">
        <rect height="445.56" width="449.12" y="405.88" x="315.14" class="cls-3"/>
      </g>
      <g class="cls-6">
        <rect height="445.56" width="449.12" y="405.88" x="315.14" class="cls-2"/>
      </g>
    </g>
  </g>
</svg>